<svg xmlns="http://www.w3.org/2000/svg" fill="none" viewBox="0 0 32 32" width="32px" height="32px"><g clip-path="url(#price-light_svg__a)"><path fill="#fff" d="m16.004 14.192.98-2.613h-5.946l1.002 2.613-.307 2.932H14l2.288-.01-.284-2.922Z"></path><path fill="#fff" d="m19.704 12.454-2.689 1.75v3.11l-2.055 1.971v.928l1.981 1.825h1.655l4.176-7.276-3.068-2.308ZM18.575 6.19H9.394L8.329 10.87h11.353L18.575 6.19ZM11.028 14.204l-2.72-1.73-3.079 2.288 4.196 7.296h1.677l1.98-1.846v-.927l-2.054-1.97v-3.111Z"></path><path fill="#003688" d="M14 .525 2.333 7.26v13.472L14 27.468l11.667-6.736V7.26L14 .525ZM9.394 6.19h9.181l1.107 4.681H8.33L9.394 6.19Zm3.689 14.022-1.981 1.846H9.426l-4.197-7.296 3.078-2.288 2.72 1.729v3.11l2.055 1.972v.927Zm-1.35-3.089.306-2.93-1-2.615h5.944l-.98 2.614.285 2.921-2.287.01h-2.267Zm6.863 4.913H16.94l-1.98-1.824v-.927l2.054-1.972v-3.11l2.689-1.75 3.068 2.308-4.176 7.276Z"></path><path fill="url(#price-light_svg__b)" d="M14 .525V6.19h4.575l1.107 4.681H14v.707h2.983l-.98 2.614.285 2.921-2.287.01v10.345l11.667-6.736V7.26L14 .525Zm4.596 21.513H16.94l-1.98-1.824v-.928l2.054-1.972v-3.11l2.689-1.75 3.068 2.308-4.176 7.276Z"></path><path fill="url(#price-light_svg__c)" d="m11.733 17.124.306-2.93-1-2.615H14v-.707H8.329l1.065-4.681H14V.525L2.333 7.26v13.472L14 27.468V17.123h-2.267v.001Zm1.35 3.09-1.981 1.845H9.426l-4.197-7.297 3.078-2.288 2.72 1.729v3.11l2.055 1.972v.929Z"></path></g><defs><linearGradient id="price-light_svg__b" x1="19.833" x2="19.833" y1="27.468" y2="0.65" gradientUnits="userSpaceOnUse"><stop stop-color="#111C4E"></stop><stop offset="1" stop-color="#111C4E" stop-opacity="0"></stop></linearGradient><linearGradient id="price-light_svg__c" x1="8.167" x2="8.167" y1="0.56" y2="24.881" gradientUnits="userSpaceOnUse"><stop stop-color="#111C4E"></stop><stop offset="1" stop-color="#111C4E" stop-opacity="0"></stop></linearGradient><clipPath id="price-light_svg__a"><path fill="#fff" d="M2.333.525h23.333v26.943H2.333z"></path></clipPath></defs></svg>