<svg t="1746633128719" class="icon" viewBox="0 0 1024 1024" version="1.1" xmlns="http://www.w3.org/2000/svg" p-id="18912" width="32" height="32"><path d="M113.7664 312.9344V170.7008c0-31.4368 25.4976-56.9344 56.9344-56.9344h142.2336c15.6672 0 28.4672 12.6976 28.4672 28.4672s-12.6976 28.4672-28.4672 28.4672H170.7008v142.2336c0 15.6672-12.6976 28.4672-28.4672 28.4672s-28.4672-12.8-28.4672-28.4672z m56.9344 398.1312v142.2336h142.2336c15.6672 0 28.4672 12.6976 28.4672 28.4672s-12.6976 28.4672-28.4672 28.4672H170.7008c-31.4368 0-56.9344-25.4976-56.9344-56.9344V711.0656c0-15.6672 12.6976-28.4672 28.4672-28.4672s28.4672 12.8 28.4672 28.4672z m682.5984-398.1312V170.7008H711.0656c-15.6672 0-28.4672-12.6976-28.4672-28.4672 0-15.6672 12.6976-28.4672 28.4672-28.4672h142.2336c31.4368 0 56.9344 25.4976 56.9344 56.9344v142.2336c0 15.6672-12.6976 28.4672-28.4672 28.4672s-28.4672-12.8-28.4672-28.4672z m56.9344 398.1312v142.2336c0 31.4368-25.4976 56.9344-56.9344 56.9344H711.0656c-15.6672 0-28.4672-12.6976-28.4672-28.4672s12.6976-28.4672 28.4672-28.4672h142.2336V711.0656c0-15.6672 12.6976-28.4672 28.4672-28.4672s28.4672 12.8 28.4672 28.4672z m-768-227.5328h739.5328c15.6672 0 28.4672 12.6976 28.4672 28.4672 0 15.6672-12.6976 28.4672-28.4672 28.4672H142.2336c-15.6672 0-28.4672-12.6976-28.4672-28.4672 0-15.6672 12.6976-28.4672 28.4672-28.4672z" fill="#ffffff" p-id="18913"></path></svg>